<svg xmlns="http://www.w3.org/2000/svg" width="300" height="200" viewBox="0 0 300 200"><rect width="100%" height="100%" fill="#DDDDDD"/><path fill="#999999" d="M85.73 78.32h5.69v34.7h-3.31q-.77 0-1.29-.25-.51-.25-.99-.85L67.71 88.78q.14 1.58.14 2.93v21.31h-5.69v-34.7h3.39q.41 0 .71.03.3.04.52.15.23.1.45.31.21.2.48.54l18.19 23.23q-.07-.84-.12-1.66-.05-.81-.05-1.51zm23.38 9.69q2.73 0 4.98.89 2.24.89 3.84 2.52 1.59 1.63 2.46 3.98.86 2.36.86 5.26 0 2.93-.86 5.28-.87 2.35-2.46 4.01-1.6 1.65-3.84 2.54-2.25.89-4.98.89-2.76 0-5.02-.89-2.25-.89-3.85-2.54-1.6-1.66-2.47-4.01-.88-2.35-.88-5.28 0-2.9.88-5.26.87-2.35 2.47-3.98t3.85-2.52q2.26-.89 5.02-.89m0 20.81q3.07 0 4.55-2.06 1.47-2.07 1.47-6.05 0-3.99-1.47-6.07-1.48-2.09-4.55-2.09-3.12 0-4.62 2.1t-1.5 6.06 1.5 6.03q1.5 2.08 4.62 2.08m35.76-30.5v34.7h-6.48v-34.7zm12.74 34.7h-5.93V88.4h3.63q1.15 0 1.51 1.08l.38 1.82q.65-.72 1.36-1.32t1.51-1.03q.81-.43 1.73-.69.92-.25 2.03-.25 2.33 0 3.83 1.26t2.24 3.35q.58-1.22 1.44-2.1t1.9-1.43q1.03-.55 2.19-.81 1.17-.27 2.34-.27 2.04 0 3.63.63 1.58.62 2.66 1.82t1.64 2.93q.57 1.73.57 3.96v15.67h-5.93V97.35q0-2.35-1.03-3.54t-3.03-1.19q-.91 0-1.69.31t-1.37.9q-.58.59-.92 1.48t-.34 2.04v15.67h-5.95V97.35q0-2.47-.99-3.6-1-1.13-2.92-1.13-1.3 0-2.41.64-1.12.63-2.08 1.74zm47.28-6.36v-4.15q-2.57.12-4.32.44-1.75.33-2.81.83-1.05.5-1.51 1.18-.45.67-.45 1.46 0 1.56.92 2.23t2.41.67q1.83 0 3.16-.66t2.6-2m-12.53-12.94-1.05-1.89q4.25-3.89 10.22-3.89 2.16 0 3.87.71 1.7.71 2.88 1.97 1.17 1.26 1.78 3.01.62 1.75.62 3.84v15.55h-2.69q-.84 0-1.3-.25-.45-.25-.72-1.02l-.53-1.78q-.93.84-1.82 1.48-.89.63-1.85 1.07-.96.43-2.05.66-1.09.22-2.41.22-1.56 0-2.88-.42t-2.28-1.26-1.49-2.08q-.53-1.25-.53-2.91 0-.93.31-1.86.32-.92 1.02-1.76.71-.84 1.84-1.59 1.13-.74 2.77-1.29 1.65-.55 3.83-.9t4.99-.42v-1.44q0-2.47-1.05-3.66-1.06-1.19-3.05-1.19-1.44 0-2.39.34-.95.33-1.67.75t-1.31.76q-.58.33-1.3.33-.63 0-1.06-.32t-.7-.76m32.88 6.39q1.11 0 1.92-.3.82-.3 1.36-.83t.82-1.27q.27-.75.27-1.63 0-1.83-1.09-2.9-1.09-1.06-3.28-1.06-2.18 0-3.27 1.06-1.09 1.07-1.09 2.9 0 .86.27 1.6.28.75.82 1.29t1.37.84q.82.3 1.9.3m6.7 14.01q0-.72-.43-1.17-.43-.46-1.18-.71-.74-.25-1.74-.37-.99-.12-2.11-.18t-2.3-.11q-1.19-.05-2.32-.19-.98.55-1.6 1.29-.61.75-.61 1.73 0 .65.33 1.21.32.57 1.03.98.71.4 1.83.63 1.13.23 2.76.23 1.66 0 2.86-.25t1.98-.7q.78-.44 1.14-1.05.36-.62.36-1.34m-1.18-24.88h7.08v2.2q0 1.06-1.27 1.3l-2.21.41q.51 1.27.51 2.78 0 1.83-.73 3.3-.74 1.48-2.03 2.51-1.3 1.03-3.06 1.6-1.77.56-3.81.56-.72 0-1.39-.07t-1.32-.19q-1.15.69-1.15 1.56 0 .74.68 1.09.69.35 1.82.49 1.12.14 2.56.18t2.96.16q1.51.12 2.95.42t2.57.94q1.12.65 1.81 1.77.68 1.11.68 2.87 0 1.63-.8 3.16-.81 1.54-2.33 2.74t-3.74 1.93-5.06.73q-2.78 0-4.84-.54-2.07-.54-3.44-1.44-1.36-.9-2.04-2.07-.67-1.18-.67-2.45 0-1.73 1.05-2.89 1.04-1.17 2.86-1.86-.98-.51-1.56-1.35-.57-.84-.57-2.2 0-.56.2-1.14.21-.59.6-1.17.4-.57 1-1.09t1.41-.92q-1.87-1.01-2.94-2.69-1.06-1.68-1.06-3.94 0-1.82.73-3.3.73-1.47 2.04-2.52 1.31-1.04 3.09-1.59 1.79-.56 3.9-.56 1.59 0 2.98.33 1.39.32 2.54.95"/></svg>